<svg id="Layer_1" data-name="Layer 1" xmlns="http://www.w3.org/2000/svg" xmlns:xlink="http://www.w3.org/1999/xlink" width="960" height="125" viewBox="0 0 960 125"><defs><style>.cls-1{fill:none;}.cls-2{clip-path:url(#clip-path);}.cls-3{font-size:582.94px;font-family:LTCBodoni175Pro, "LTC Bodoni 175 Pro";letter-spacing:0.06em;}</style><clipPath id="clip-path"><rect class="cls-1" x="-277.5" y="305.21" width="1515.5" height="200.73"/></clipPath></defs><path d="M590.94,125.69h33.58V92.26c0-38.26,22.64-67.93,51.15-67.93,17.17,0,26.15,12.88,26.15,37.48v63.88h34V69.22c0-29.67-23-52.31-53.09-52.31-24.21,0-41,10.93-58.17,37.48V23.94H563.23v6.24h27.71Z"/><path d="M845.6,125.69c-.08-2.26-.14-4.52-.14-6.89,0-5.85,0-12.88.39-20.3H957.5c0-44.5-32-80.81-71.44-80.81-41,0-76.13,42.55-76.13,91.75a100.44,100.44,0,0,0,1.38,16.25ZM883.72,23.94c28.88,0,37.47,16,37.47,68.71H845.46C845.46,46.19,858,23.94,883.72,23.94Z"/><path d="M408,125.69c-.08-2.26-.15-4.52-.15-6.89,0-5.85,0-12.88.39-20.3H519.92c0-44.5-32-80.81-71.45-80.81-41,0-76.12,42.55-76.12,91.75a100.45,100.45,0,0,0,1.37,16.25ZM446.13,23.94c28.89,0,37.48,16,37.48,68.71H407.87C407.87,46.19,420.36,23.94,446.13,23.94Z"/><path d="M56.16,120.37c5.56,1.88,10.56,3.64,15.1,5.32h51.6C116.16,109,98.24,97.59,63.19,86.4,24.54,73.91,14.77,64.54,14.77,51.26c0-14.83,16.41-27.71,35.15-27.71,26.15,0,46.84,20.69,55,55.05h6.64C110,58.68,110,39.94,110,20.81l-4.68.4c-1.56,8.19-5.07,13.66-8.59,13.66a13.18,13.18,0,0,1-3.9-1.56c-16-10.55-30.84-16-44.12-16C22.59,17.3,1.5,39.16,1.5,66.49,1.5,91.09,17.9,107.48,56.16,120.37Z"/><path d="M212.93,125.69c-.41-6.34-.63-13.15-.63-20.55,0-54.66,16-81.59,49.59-81.59,16,0,28.88,8.2,28.88,18.34,0,9-6.25,16.4-6.25,25,0,9,8.6,16.79,18,16.79,10.55,0,18-8.2,18-21.08,0-23.43-28.5-44.9-60.12-44.9-46.84,0-85.1,42.16-85.1,93.31a99.18,99.18,0,0,0,1.17,14.69Z"/><g class="cls-2"><text class="cls-3" transform="translate(-270.98 605.26)">scene</text></g></svg>