<svg id="Layer_1" data-name="Layer 1" xmlns="http://www.w3.org/2000/svg" xmlns:xlink="http://www.w3.org/1999/xlink" width="960" height="125" viewBox="0 0 960 125"><defs><style>.cls-1{fill:none;}.cls-2{clip-path:url(#clip-path);}.cls-3{font-size:582.94px;font-family:LTCBodoni175Pro, "LTC Bodoni 175 Pro";letter-spacing:0.06em;}</style><clipPath id="clip-path"><rect class="cls-1" x="-277.5" y="305.21" width="1515.5" height="200.73"/></clipPath></defs><path d="M576.42,125h29.2V95.93c0-33.28,19.68-59.08,44.47-59.08,14.94,0,22.74,11.21,22.74,32.6V125h29.54V75.9c0-25.81-20-45.5-46.17-45.5-21.05,0-35.65,9.51-50.58,32.59V36.51h-53.3V42h24.1Z"/><path d="M797.87,125c-.06-2-.12-3.93-.12-6,0-5.09,0-11.2.34-17.65h97.09c0-38.71-27.84-70.28-62.12-70.28-35.65,0-66.21,37-66.21,79.79a87.07,87.07,0,0,0,1.2,14.13ZM831,36.51c25.12,0,32.59,13.92,32.59,59.76H797.75C797.75,55.87,808.61,36.51,831,36.51Z"/><path d="M417.34,125c-.07-2-.13-3.93-.13-6,0-5.09,0-11.2.34-17.65h97.1c0-38.71-27.84-70.28-62.14-70.28-35.64,0-66.19,37-66.19,79.79A87.08,87.08,0,0,0,387.51,125Zm33.14-88.49c25.12,0,32.59,13.92,32.59,59.76H417.21C417.21,55.87,428.07,36.51,450.48,36.51Z"/><path d="M111.35,120.37c4.84,1.64,9.18,3.17,13.13,4.63h44.87c-5.82-14.5-21.4-24.43-51.89-34.17-33.61-10.86-42.1-19-42.1-30.55,0-12.9,14.26-24.11,30.56-24.11,22.74,0,40.74,18,47.87,47.88h5.77c-1.36-17.32-1.36-33.62-1.36-50.25l-4.07.34C152.77,41.27,149.72,46,146.66,46a11.49,11.49,0,0,1-3.4-1.36c-13.92-9.17-26.82-13.92-38.36-13.92-22.75,0-41.08,19-41.08,42.78C63.82,94.91,78.08,109.17,111.35,120.37Z"/><path d="M247.68,125c-.36-5.51-.54-11.44-.54-17.87,0-47.53,13.91-71,43.11-71,13.92,0,25.13,7.13,25.13,16,0,7.81-5.44,14.26-5.44,21.73,0,7.81,7.48,14.6,15.62,14.6,9.17,0,15.62-7.13,15.62-18.34,0-20.37-24.78-39-52.29-39-40.73,0-74,36.67-74,81.14a87.37,87.37,0,0,0,1,12.78Z"/><g class="cls-2"><text class="cls-3" transform="translate(-270.98 605.26)">scene</text></g></svg>