<svg id="Layer_1" data-name="Layer 1" xmlns="http://www.w3.org/2000/svg" width="105" height="14" viewBox="0 0 105 14"><defs><style>.cls-1{fill:none;}</style></defs><rect class="cls-1" x="-1" width="107" height="14"/><path d="M64.5,14h3.6V10.41c0-4.11,2.44-7.3,5.5-7.3,1.84,0,2.81,1.39,2.81,4V14h3.64V7.94a5.56,5.56,0,0,0-5.7-5.62c-2.6,0-4.4,1.17-6.25,4V3.07H61.52v.67h3Z"/><path d="M91.85,14c0-.24,0-.49,0-.74,0-.63,0-1.38,0-2.18h12c0-4.78-3.44-8.68-7.67-8.68C91.79,2.4,88,7,88,12.25A10,10,0,0,0,88.17,14ZM95.94,3.07c3.11,0,4,1.72,4,7.38H91.83C91.83,5.46,93.18,3.07,95.94,3.07Z"/><path d="M44.85,14c0-.24,0-.49,0-.74,0-.63,0-1.38.05-2.18h12c0-4.78-3.44-8.68-7.67-8.68C44.79,2.4,41,7,41,12.25A10,10,0,0,0,41.17,14ZM48.94,3.07c3.11,0,4,1.72,4,7.38H44.83C44.83,5.46,46.18,3.07,48.94,3.07Z"/><path d="M7.06,13.43c.6.2,1.13.39,1.62.57h5.54c-.72-1.79-2.64-3-6.41-4.22C3.66,8.44,2.61,7.43,2.61,6c0-1.6,1.77-3,3.78-3,2.81,0,5,2.22,5.91,5.91H13c-.16-2.14-.16-4.15-.16-6.2l-.51,0c-.17.88-.54,1.47-.92,1.47A1.64,1.64,0,0,1,11,4.08,8.9,8.9,0,0,0,6.26,2.36,5.16,5.16,0,0,0,1.19,7.64C1.19,10.28,3,12,7.06,13.43Z"/><path d="M23.9,14c0-.68-.07-1.41-.07-2.21C23.83,5.92,25.55,3,29.16,3c1.71,0,3.1.88,3.1,2s-.67,1.76-.67,2.68a1.93,1.93,0,0,0,1.93,1.81c1.13,0,1.92-.88,1.92-2.27,0-2.51-3.06-4.82-6.45-4.82-5,0-9.14,4.53-9.14,10A11.62,11.62,0,0,0,20,14Z"/></svg>