<svg id="Layer_1" data-name="Layer 1" xmlns="http://www.w3.org/2000/svg" width="363.31" height="64.9" viewBox="0 0 363.31 64.9"><path d="M219.15,64.9h11.29V53.66c0-12.88,7.62-22.86,17.21-22.86,5.78,0,8.8,4.34,8.8,12.61V64.9h11.43v-19c0-10-7.75-17.6-17.86-17.6-8.15,0-13.8,3.67-19.58,12.61V30.67H209.82v2.1h9.33Z"/><path d="M304.83,64.9c0-.75-.05-1.52-.05-2.31,0-2,0-4.34.13-6.83h37.56c0-15-10.77-27.19-24-27.19-13.79,0-25.61,14.32-25.61,30.87a33.71,33.71,0,0,0,.46,5.46Zm12.82-34.23c9.72,0,12.61,5.39,12.61,23.12H304.78C304.78,38.16,309,30.67,317.65,30.67Z"/><path d="M157.6,64.9c0-.75,0-1.52,0-2.31,0-2,0-4.34.13-6.83h37.57c0-15-10.77-27.19-24-27.19-13.79,0-25.61,14.32-25.61,30.87a33.71,33.71,0,0,0,.46,5.46Zm12.83-34.23c9.71,0,12.61,5.39,12.61,23.12H157.55C157.55,38.16,161.76,30.67,170.43,30.67Z"/><path d="M39.22,63.11c1.87.64,3.55,1.23,5.08,1.79H61.66c-2.25-5.6-8.28-9.45-20.07-13.21-13-4.21-16.29-7.36-16.29-11.83,0-5,5.52-9.32,11.82-9.32,8.8,0,15.76,7,18.52,18.52h2.23c-.52-6.7-.52-13-.52-19.44l-1.58.13c-.52,2.76-1.71,4.6-2.89,4.6a4.52,4.52,0,0,1-1.31-.53c-5.39-3.54-10.38-5.38-14.84-5.38-8.81,0-15.9,7.35-15.9,16.55C20.83,53.26,26.35,58.78,39.22,63.11Z"/><path d="M92,64.9c-.14-2.13-.21-4.42-.21-6.91,0-18.39,5.38-27.45,16.68-27.45,5.38,0,9.72,2.76,9.72,6.17,0,3-2.11,5.52-2.11,8.41s2.89,5.65,6,5.65c3.54,0,6-2.76,6-7.1,0-7.88-9.59-15.1-20.23-15.1C92.15,28.57,79.28,42.75,79.28,60a33.16,33.16,0,0,0,.39,4.94Z"/></svg>